<svg width="20" height="22" viewBox="0 0 20 22" fill="none" xmlns="http://www.w3.org/2000/svg">
<path d="M8.82 8.053C8.06 6.968 7.774 6.181 7.712 5.608C7.653 5.068 7.785 4.638 8.047 4.225C8.33 3.778 8.755 3.363 9.295 2.872C9.8 2.414 10.432 1.869 10.928 1.252L9.37 0C8.954 0.517 8.442 0.947 7.952 1.391C7.418 1.876 6.803 2.453 6.359 3.155C5.893 3.89 5.609 4.766 5.724 5.825C5.836 6.851 6.312 7.957 7.182 9.2L8.82 8.053ZM10.07 5.023C10.354 4.339 10.931 3.653 11.85 2.867L13.15 4.385C12.319 5.098 12.021 5.538 11.915 5.792C11.811 6.042 11.88 6.291 11.95 6.539C12.034 6.835 12.173 7.329 12.164 7.861C12.152 8.567 11.91 9.313 11.332 10.181L9.668 9.071C10.09 8.439 10.16 8.061 10.164 7.828C10.169 7.533 10.092 7.368 9.967 6.868C9.847 6.39 9.758 5.771 10.07 5.023ZM4.141 9.626C4.611 9.312 5.191 9.152 5.733 9.022L5.266 7.076C4.453 7.272 3.715 7.536 3.154 7.883C2.644 8.199 2 8.762 2 9.626C2 10.352 2.486 10.932 3.065 11.312C3.02138 11.4995 2.99957 11.6915 3 11.884C3 12.864 3.418 13.691 4.143 14.304C4.036 14.604 3.988 14.938 4.003 15.272C3.226 15.423 2.467 15.645 1.833 15.936C1.401 16.134 0.975 16.387 0.643 16.713C0.309 17.042 0 17.517 0 18.126C0 18.553 0.189 18.898 0.374 19.136C0.563 19.378 0.806 19.585 1.058 19.76C1.564 20.111 2.242 20.429 3.017 20.696C4.575 21.234 6.686 21.626 9 21.626C12.327 21.626 14.663 21.242 16.19 20.844C16.7702 20.6965 17.3396 20.509 17.894 20.283C18.104 20.195 18.314 20.102 18.51 19.986C18.52 19.98 17.482 18.271 17.486 18.268C16.922 18.562 16.298 18.748 15.686 18.908C14.337 19.26 12.173 19.626 9 19.626C6.896 19.626 5.007 19.268 3.67 18.806C3.138 18.622 2.582 18.408 2.129 18.066C2.244 17.976 2.419 17.867 2.667 17.754C3.225 17.498 3.99 17.288 4.807 17.163C5.03633 17.4063 5.30767 17.6197 5.621 17.803C6.586 18.365 7.913 18.626 9.5 18.626C10.81 18.626 11.758 18.494 12.398 18.352C12.754 18.274 13.112 18.185 13.44 18.024C13.443 18.022 12.559 16.229 12.559 16.229C12.365 16.299 12.1673 16.3557 11.966 16.399C11.477 16.508 10.676 16.626 9.5 16.626C8.087 16.626 7.164 16.386 6.629 16.075C6.203 15.827 6.04 15.551 6.007 15.251C6.875 15.504 7.902 15.626 9.063 15.626C10.526 15.626 11.581 15.483 12.291 15.329C12.677 15.246 13.066 15.15 13.425 14.983C13.445 14.973 12.568 13.176 12.568 13.176C12.3405 13.2612 12.1064 13.3274 11.868 13.374C11.308 13.495 10.395 13.626 9.062 13.626C7.459 13.626 6.392 13.362 5.76 13.003C5.289 12.735 5.082 12.435 5.02 12.113C6.26 12.439 7.825 12.626 9.5 12.626C11.317 12.626 13.002 12.406 14.283 12.028L13.717 10.11C12.663 10.421 11.177 10.626 9.5 10.626C7.776 10.626 6.255 10.41 5.198 10.084C4.698 9.931 4.352 9.768 4.142 9.626M15.59 10.372C16.803 10.262 17.25 10.56 17.394 10.714C17.543 10.874 17.595 11.122 17.53 11.384C17.414 11.848 17.087 12.298 16.557 12.712C16.028 13.125 15.357 13.452 14.684 13.677L15.316 15.574C16.144 15.298 17.034 14.876 17.787 14.289C18.537 13.703 19.211 12.904 19.47 11.869C19.655 11.129 19.582 10.128 18.856 9.349C18.126 8.567 16.947 8.24 15.409 8.38L15.59 10.372Z" fill="white"/>
</svg>
