<svg width="22" height="22" viewBox="0 0 22 22" fill="none" xmlns="http://www.w3.org/2000/svg">
<path d="M0.5 0.5V21.5H21.5V0.5H0.5ZM11.9285 16.8777C11.9285 18.9215 10.7285 19.8545 8.98025 19.8545C7.40075 19.8545 6.4865 19.0392 6.01775 18.05L7.62575 17.0795C7.9355 17.6278 8.21675 18.092 8.89625 18.092C9.54275 18.092 9.95525 17.8385 9.95525 16.85V10.142H11.9285V16.8777ZM16.5965 19.8545C14.7635 19.8545 13.5777 18.983 13.001 17.8385L14.609 16.9108C15.0313 17.6 15.584 18.1108 16.5545 18.1108C17.3698 18.1108 17.8955 17.7027 17.8955 17.1357C17.8955 16.4607 17.3607 16.2215 16.4562 15.8232L15.9642 15.6125C14.5392 15.008 13.5972 14.2437 13.5972 12.6357C13.5972 11.1545 14.7267 10.0295 16.4847 10.0295C17.741 10.0295 18.641 10.4653 19.2883 11.609L17.7507 12.5938C17.4132 11.9893 17.0472 11.75 16.4802 11.75C15.9042 11.75 15.5383 12.116 15.5383 12.5938C15.5383 13.1847 15.9043 13.4233 16.7525 13.7938L17.2445 14.0045C18.923 14.7215 19.865 15.458 19.865 17.1072C19.865 18.8795 18.4677 19.8538 16.5972 19.8538L16.5965 19.8545Z" fill="white"/>
</svg>
