<svg width="18" height="20" viewBox="0 0 18 20" fill="none" xmlns="http://www.w3.org/2000/svg">
<path d="M9 0.25C5.0265 0.25 0.75 1.189 0.75 3.25V16.75C0.75 18.811 5.0265 19.75 9 19.75C12.9735 19.75 17.25 18.811 17.25 16.75V3.25C17.25 1.189 12.9735 0.25 9 0.25ZM9 1.75C13.3485 1.75 15.5962 2.8255 15.7477 3.25C15.5962 3.6745 13.3477 4.75 9 4.75C4.61925 4.75 2.37 3.658 2.25 3.2635V3.25975C2.37 2.842 4.61925 1.75 9 1.75ZM2.25 5.071C3.846 5.87125 6.48225 6.25 9 6.25C11.5178 6.25 14.154 5.87125 15.75 5.071V7.741C15.63 8.158 13.3808 9.25 9 9.25C4.6125 9.25 2.3625 8.155 2.25 7.75V5.071ZM2.25 9.571C3.846 10.3713 6.48225 10.75 9 10.75C11.5178 10.75 14.154 10.3713 15.75 9.571V12.241C15.63 12.658 13.3808 13.75 9 13.75C4.6125 13.75 2.3625 12.655 2.25 12.25V9.571ZM9 18.25C4.6125 18.25 2.3625 17.155 2.25 16.75V14.071C3.846 14.8712 6.48225 15.25 9 15.25C11.5178 15.25 14.154 14.8712 15.75 14.071V16.741C15.63 17.158 13.3808 18.25 9 18.25Z" fill="white"/>
</svg>
